<?xml version="1.0" encoding="utf-8"?>
<!-- Generator: Adobe Illustrator 23.0.1, SVG Export Plug-In . SVG Version: 6.00 Build 0)  -->
<svg version="1.1" xmlns="http://www.w3.org/2000/svg" xmlns:xlink="http://www.w3.org/1999/xlink" x="0px" y="0px" width="38px"
	 height="38px" viewBox="0 0 38 38" style="enable-background:new 0 0 38 38;" xml:space="preserve">
<style type="text/css">
	.st0{fill:#004D77;}
	.st1{fill:#3EC9F3;}
	.st2{fill:#2FACD6;}
	.st3{opacity:0.1;fill:#004D77;}
</style>
<g id="Layer_1">
	<g>
		<g>
			<polygon class="st0" points="15.79,27.286 14.565,27.286 14.565,23.898 10.84,20.777 10.84,13.63 12.065,13.63 12.065,20.205 
				15.79,23.326 			"/>
			<path class="st0" d="M11.542,14.242c-0.959,0-1.738-0.78-1.738-1.739s0.78-1.739,1.738-1.739c0.959,0,1.739,0.78,1.739,1.739
				S12.501,14.242,11.542,14.242z M11.542,11.989c-0.283,0-0.514,0.231-0.514,0.514s0.23,0.514,0.514,0.514
				c0.283,0,0.514-0.231,0.514-0.514S11.825,11.989,11.542,11.989z"/>
			
				<rect x="10.789" y="15.522" transform="matrix(0.6422 -0.7665 0.7665 0.6422 -11.5948 16.0555)" class="st0" width="1.225" height="9.852"/>
			<path class="st0" d="M7.046,18.273c-0.959,0-1.739-0.78-1.739-1.739s0.78-1.739,1.739-1.739c0.959,0,1.738,0.78,1.738,1.739
				S8.004,18.273,7.046,18.273z M7.046,16.02c-0.283,0-0.514,0.231-0.514,0.514s0.231,0.514,0.514,0.514s0.514-0.231,0.514-0.514
				S7.329,16.02,7.046,16.02z"/>
			<polygon class="st0" points="17.729,27.286 16.504,27.286 16.504,22.705 13.749,20.766 13.749,17.597 14.973,17.597 
				14.973,20.13 17.729,22.069 			"/>
			<path class="st0" d="M14.361,18.209c-0.959,0-1.738-0.78-1.738-1.739c0-0.959,0.78-1.738,1.738-1.738
				c0.959,0,1.739,0.78,1.739,1.738C16.1,17.429,15.32,18.209,14.361,18.209z M14.361,15.956c-0.283,0-0.514,0.23-0.514,0.514
				s0.23,0.514,0.514,0.514s0.514-0.231,0.514-0.514S14.645,15.956,14.361,15.956z"/>
			<rect x="18.647" y="13.206" class="st0" width="1.225" height="13.865"/>
			<path class="st0" d="M19.26,14.246c-0.959,0-1.738-0.78-1.738-1.739s0.78-1.739,1.738-1.739c0.959,0,1.739,0.78,1.739,1.739
				S20.218,14.246,19.26,14.246z M19.26,11.994c-0.283,0-0.514,0.231-0.514,0.514c0,0.283,0.23,0.514,0.514,0.514
				c0.283,0,0.514-0.231,0.514-0.514C19.774,12.224,19.543,11.994,19.26,11.994z"/>
			<polygon class="st0" points="23.986,27.286 22.762,27.286 22.762,23.326 26.487,20.205 26.487,13.63 27.711,13.63 27.711,20.777 
				23.986,23.898 			"/>
			<path class="st0" d="M27.01,14.242c-0.959,0-1.739-0.78-1.739-1.739s0.78-1.739,1.739-1.739c0.959,0,1.738,0.78,1.738,1.739
				S27.968,14.242,27.01,14.242z M27.01,11.989c-0.283,0-0.514,0.231-0.514,0.514s0.231,0.514,0.514,0.514s0.514-0.231,0.514-0.514
				S27.293,11.989,27.01,11.989z"/>
			
				<rect x="22.224" y="19.836" transform="matrix(0.7667 -0.642 0.642 0.7667 -6.7938 22.2012)" class="st0" width="9.852" height="1.224"/>
			<path class="st0" d="M31.506,18.273c-0.959,0-1.738-0.78-1.738-1.739s0.78-1.739,1.738-1.739s1.739,0.78,1.739,1.739
				S32.465,18.273,31.506,18.273z M31.506,16.02c-0.283,0-0.514,0.231-0.514,0.514s0.23,0.514,0.514,0.514
				c0.283,0,0.514-0.231,0.514-0.514S31.789,16.02,31.506,16.02z"/>
			<polygon class="st0" points="22.047,27.286 20.823,27.286 20.823,22.069 23.578,20.13 23.578,17.597 24.803,17.597 
				24.803,20.766 22.047,22.705 			"/>
			<path class="st0" d="M24.19,18.209c-0.959,0-1.739-0.78-1.739-1.739c0-0.959,0.78-1.738,1.739-1.738
				c0.959,0,1.738,0.78,1.738,1.738C25.929,17.429,25.149,18.209,24.19,18.209z M24.19,15.956c-0.283,0-0.514,0.23-0.514,0.514
				s0.231,0.514,0.514,0.514c0.283,0,0.514-0.231,0.514-0.514S24.474,15.956,24.19,15.956z"/>
			<path class="st1" d="M14.002,27.481c1.05,0,1.901,0.851,1.901,1.901v5.163c0,1.05-0.851,1.901-1.901,1.901H6.483
				c-1.05,0-1.901-0.851-1.901-1.901l-0.973-7.065H14.002"/>
			<path class="st2" d="M24.401,27.481h10.394l-0.973,7.065c0,1.05-0.851,1.901-1.901,1.901h-7.519c-1.05,0-1.901-0.851-1.901-1.901
				v-5.163C22.5,28.332,23.351,27.481,24.401,27.481"/>
			<g>
				<g>
					<path class="st0" d="M34.614,27.683l-0.929,6.747c0,1.003-0.813,1.816-1.816,1.816h-7.181c-1.003,0-1.816-0.813-1.816-1.816
						v-4.931c0-1.003,0.813-1.816,1.816-1.816H34.614 M36.019,26.458h-1.405h-9.926c-1.677,0-3.04,1.364-3.04,3.04v4.931
						c0,1.677,1.364,3.04,3.04,3.04h7.181c1.645,0,2.989-1.313,3.039-2.946l0.919-6.674L36.019,26.458L36.019,26.458z"/>
				</g>
			</g>
			<g>
				<g>
					<path class="st0" d="M13.831,27.683c1.003,0,1.816,0.813,1.816,1.816v4.931c0,1.003-0.813,1.816-1.816,1.816H6.651
						c-1.003,0-1.816-0.813-1.816-1.816l-0.929-6.747H13.831 M13.831,26.458H3.906H2.501l0.192,1.392l0.919,6.674
						c0.05,1.633,1.394,2.946,3.039,2.946h7.181c1.677,0,3.04-1.364,3.04-3.04v-4.931C16.872,27.822,15.508,26.458,13.831,26.458
						L13.831,26.458z"/>
				</g>
			</g>
			<polygon class="st0" points="23.166,28.295 15.472,28.295 15.472,27.07 23.374,27.07 			"/>
			<path class="st3" d="M13.831,27.606H3.906l0.662,4.804l10.904-3.763C15.181,28.033,14.557,27.606,13.831,27.606z"/>
			<path class="st3" d="M34.614,27.606h-9.926c-1.003,0-1.816,0.813-1.816,1.816v2.685l11.676-4.029L34.614,27.606z"/>
		</g>
	</g>
</g>
<g id="Layer_2">
</g>
</svg>
